<?xml version="1.0" standalone="no"?>
<!DOCTYPE svg PUBLIC "-//W3C//DTD SVG 20010904//EN"
 "http://www.w3.org/TR/2001/REC-SVG-20010904/DTD/svg10.dtd">
<svg version="1.0" xmlns="http://www.w3.org/2000/svg"
 width="640.000000pt" height="257.000000pt" viewBox="0 0 640.000000 257.000000"
 preserveAspectRatio="xMidYMid meet">

<g transform="translate(0.000000,257.000000) scale(0.100000,-0.100000)"
fill="#000000" stroke="none">
<path d="M0 1285 l0 -1285 3200 0 3200 0 0 1285 0 1285 -3200 0 -3200 0 0
-1285z m780 537 c54 -344 87 -535 92 -520 4 13 43 253 88 533 44 281 83 516
85 523 3 9 62 12 250 12 l245 0 1 -977 c0 -538 2 -973 4 -968 3 6 68 433 145
950 77 517 143 952 146 968 l6 27 258 0 258 0 10 -57 c5 -32 68 -445 138 -918
127 -844 129 -858 135 -770 4 50 7 463 8 919 l1 828 253 -4 c238 -5 256 -7
333 -31 133 -44 250 -132 328 -248 43 -64 43 -64 17 131 -10 74 -17 138 -14
143 2 4 91 7 198 7 192 0 193 0 198 -22 3 -13 43 -301 89 -641 45 -340 86
-610 90 -600 4 10 43 288 88 618 44 330 83 610 85 623 l5 22 548 -2 547 -3 3
-197 2 -198 -175 0 -175 0 0 -245 0 -245 175 0 175 0 0 -195 0 -195 -175 0
-175 0 0 -250 0 -250 175 0 175 0 0 -195 0 -195 -370 0 -370 0 -1 963 c0 529
-2 958 -4 952 -2 -5 -68 -410 -145 -900 -77 -490 -146 -918 -151 -952 l-11
-63 -228 0 -228 0 -10 58 c-5 31 -54 321 -108 644 -54 323 -100 586 -101 585
-1 -2 -9 -36 -17 -77 -22 -105 -85 -227 -157 -304 -32 -35 -59 -68 -59 -73 0
-7 178 -621 236 -815 5 -17 -9 -18 -189 -18 l-194 0 -61 238 c-34 130 -76 290
-94 355 l-31 118 -41 -3 -41 -3 -3 -353 -2 -352 -373 2 -372 3 -17 120 c-9 66
-20 139 -23 163 l-6 42 -150 0 c-82 0 -149 -1 -150 -2 0 -2 -10 -75 -23 -163
l-22 -160 -377 -3 -377 -2 -1 502 c-1 277 -4 494 -6 483 -3 -11 -42 -236 -87
-500 l-81 -480 -99 -3 c-55 -1 -103 1 -107 5 -4 4 -45 228 -91 497 l-83 489
-3 -496 -2 -497 -195 0 -195 0 0 1085 0 1085 248 -2 247 -3 85 -543z m5092
-339 l3 -888 168 -3 167 -2 -2 -193 -3 -192 -362 -3 -363 -2 0 1078 c0 593 3
1082 7 1085 3 4 91 7 195 7 l188 0 2 -887z"/>
<path d="M3040 1635 l0 -345 25 0 c35 0 94 32 134 72 72 71 104 194 90 341
-15 154 -89 246 -216 270 l-33 7 0 -345z"/>
<path d="M2098 1740 c-6 -15 -98 -808 -98 -842 0 -16 12 -18 106 -18 l106 0
-6 38 c-3 20 -26 208 -51 417 -54 452 -50 424 -57 405z"/>
</g>
</svg>